<svg id="Layer_1" data-name="Layer 1" xmlns="http://www.w3.org/2000/svg" viewBox="0 0 124 49.07"><defs><style>.cls-1{fill:#fff;}.cls-2{fill:#db3e3f;}</style></defs><title>LOGO</title><path class="cls-1" d="M124,13H8.34L.05,0,0,38.26H13l7.42,10.81V38.26H124Z"/><polygon class="cls-2" points="51 27.36 54.06 27.36 52.53 22.8 51 27.36"/><path class="cls-2" d="M19.31,19.13h-.87l0,5.2h.84c1.77,0,3.78-.35,3.78-2.62s-2-2.58-3.78-2.58"/><path class="cls-2" d="M124,13H8.34L.05,0,0,38.26H13l7.42,10.81V38.26H124ZM23.56,36.22l-5.07-6.7.08,13.41-3.06-4.67L7.65,26.12,7.6,36.22H2.14L2.19,13v-5L12.93,24.62l0-5.33V15h8.13c4.14,0,7.28,2,7.28,6.41a5.61,5.61,0,0,1-4.59,5.88l6.78,8.94Zm14.38-2.5a7.74,7.74,0,0,1-8.15-8c0-4.91,3.32-8.2,8.28-8.2a7.28,7.28,0,0,1,5.75,2.42A7.46,7.46,0,0,1,45,21.74l-4.09,2.08-.1-.31a3,3,0,0,0-2.88-2.11c-1.74,0-3.48,1.47-3.48,4.3s1.79,4.24,3.54,4.24a2.49,2.49,0,0,0,2.69-1.89l-3,0,0-3.67h8.23v.32a9.66,9.66,0,0,1-1.56,6,7.4,7.4,0,0,1-6.33,3m36.83-.48-1-7.57-3.17,7.57h-2l-3-7.57-1.11,7.57H55.88l-1-2.53h-4.8l-1,2.53H44.38l5.91-15.3H54.9l5.41,14.3,2.43-14.3H67l2.77,7.26,2.87-7.26h4.3l2.32,15.28Zm9.87,0H80.18V17.94h4.46Zm17.15,0h-4.3l-6.55-8.39v8.39H86.48V17.94h4.28l6.54,8.39V17.94h4.46Zm17.09-8.49a9.6,9.6,0,0,1-1.55,6,7.44,7.44,0,0,1-6.34,3,7.74,7.74,0,0,1-8.15-8c0-4.91,3.33-8.2,8.29-8.2a7.31,7.31,0,0,1,5.75,2.42,8.54,8.54,0,0,1,1.18,1.85L114,23.82l-.11-.31A3,3,0,0,0,111,21.4c-1.74,0-3.49,1.47-3.49,4.3s1.8,4.24,3.57,4.24a2.49,2.49,0,0,0,2.69-1.89l-3,0,0-3.67h8.23Z"/><path class="cls-2" d="M27,44.19v.66H28.2v.87H27v.69h1.22v.87H26V43.35h2.25v.87l-1.22,0Z"/><path class="cls-2" d="M33.69,43.35h1l1.87,2.42h0v-2.4h1V47.3h-1l-1.87-2.4h0v2.4h-1Z"/><path class="cls-2" d="M44.09,44.19v.66h1.16v.87H44.09v.69H45.3v.87H43.06V43.35H45.3v.87l-1.21,0Z"/><path class="cls-2" d="M54,47.25H52.74l-1-1.5h0v1.5h-1V43.32h1.5c.8,0,1.38.37,1.38,1.19a1.1,1.1,0,0,1-.87,1.11Zm-2.25-2.16h.11c.32,0,.68-.05.68-.48s-.36-.47-.68-.47h-.11Z"/><path class="cls-2" d="M63,45.06a2.54,2.54,0,0,1-.4,1.56,1.83,1.83,0,0,1-1.61.76,2,2,0,0,1-2.08-1.87v-.18A2,2,0,0,1,61,43.22a1.79,1.79,0,0,1,1.77,1.1l-.95.43a.88.88,0,0,0-.84-.64,1.25,1.25,0,0,0,0,2.46.71.71,0,0,0,.82-.66v0H61v-.82Z"/><path class="cls-2" d="M69.26,46.57l-.29.68H67.88l1.51-3.93H70.5L72,47.25H70.86l-.26-.68Zm.71-2h0l-.42,1.24h.84Z"/><path class="cls-2" d="M77.54,43.35h1l.82,2.08.84-2.08h1l.58,3.93h-1L80.49,45h0l-.92,2.27h-.42L78.25,45h0l-.31,2.27h-1Z"/><path class="cls-2" d="M88.07,47.25H87V43.32h1Z"/><path class="cls-2" d="M93.53,43.35h1l1.87,2.4h0v-2.4h1v3.93h-1l-1.87-2.4h0v2.4h-1Z"/><path class="cls-2" d="M106.82,45.06a2.47,2.47,0,0,1-.39,1.56,1.85,1.85,0,0,1-1.64.76,2,2,0,0,1-2.08-1.87v-.18a2,2,0,0,1,2.14-2.11,1.78,1.78,0,0,1,1.76,1.1l-1,.43a.89.89,0,0,0-.85-.64,1.25,1.25,0,0,0,0,2.46.72.72,0,0,0,.82-.66v0h-.82v-.82Z"/></svg>