<?xml version="1.0" standalone="no"?>
<!DOCTYPE svg PUBLIC "-//W3C//DTD SVG 20010904//EN"
 "http://www.w3.org/TR/2001/REC-SVG-20010904/DTD/svg10.dtd">
<svg version="1.0" xmlns="http://www.w3.org/2000/svg"
 width="75.000000pt" height="75.000000pt" viewBox="0 0 75.000000 75.000000"
 preserveAspectRatio="xMidYMid meet">
<metadata>
Created by potrace 1.14, written by Peter Selinger 2001-2017
</metadata>
<g transform="translate(0.000000,75.000000) scale(0.100000,-0.100000)"
fill="#000000" stroke="none">
<path d="M1 458 c-1 -216 2 -278 12 -279 78 -5 137 -3 137 4 0 5 6 4 13 -2 8
-6 16 -9 19 -6 2 2 15 -13 29 -35 13 -22 27 -40 32 -40 4 0 7 -7 7 -15 0 -8 5
-15 10 -15 6 0 10 -7 10 -15 0 -8 6 -15 13 -15 9 0 13 19 12 68 l0 67 33 -1
c18 -1 32 3 32 10 0 7 3 7 8 1 9 -13 225 -13 234 0 5 7 8 7 8 0 0 -6 29 -10
67 -10 l68 1 3 182 c1 100 -1 182 -5 183 -65 5 -194 2 -197 -6 -3 -7 -5 -7 -5
0 -1 6 -75 9 -204 8 -112 0 -208 2 -214 5 -15 11 -75 102 -66 102 4 0 0 5 -9
11 -10 5 -18 17 -18 24 0 8 -4 15 -9 15 -5 0 -12 8 -14 18 -3 9 -5 -108 -6
-260z"/>
</g>
</svg>
